<svg viewBox="0 0 1024 1024" class="icon" version="1.1" xmlns="http://www.w3.org/2000/svg" fill="#000000"><g id="SVGRepo_bgCarrier" stroke-width="0"></g><g id="SVGRepo_tracerCarrier" stroke-linecap="round" stroke-linejoin="round"></g><g id="SVGRepo_iconCarrier"><path d="M618.622976 492.07296c-109.796352 0-198.803456-88.60672-198.803456-197.90848C419.81952 184.86272 508.826624 96.256 618.622976 96.256s198.803456 88.60672 198.803456 197.90848c0 109.30176-89.00608 197.90848-198.803456 197.90848zM754.64704 637.73184c0-57.435136-46.557184-103.996416-104.266752-103.996416H189.257728C131.673088 533.736448 84.992 580.30592 84.992 637.733888v187.823104c0 57.43616 46.557184 103.99744 104.265728 103.99744h461.12256c57.58464 0 104.266752-46.570496 104.266752-103.99744V637.732864z" fill="#9b05e1"></path><path d="M650.381312 533.736448H189.257728C131.674112 533.736448 84.992 580.30592 84.992 637.733888v187.823104c0 57.43616 46.557184 103.99744 104.265728 103.99744h461.123584c57.583616 0 104.265728-46.570496 104.265728-103.99744V637.732864c0-57.43616-46.557184-103.996416-104.265728-103.996416M618.622976 96.256C508.826624 96.256 419.81952 184.86272 419.81952 294.16448c0 109.30176 89.009152 197.90848 198.805504 197.90848 109.795328 0 198.803456-88.60672 198.803456-197.90848C817.427456 184.86272 728.418304 96.256 618.624 96.256m31.757312 478.441472c16.969728 0 32.891904 6.565888 44.834816 18.48832 11.911168 11.889664 18.470912 27.710464 18.470912 44.548096v187.824128c0 34.758656-28.399616 63.03744-63.305728 63.03744H189.257728c-16.969728 0-32.891904-6.567936-44.836864-18.490368-11.90912-11.88864-18.46784-27.70944-18.46784-44.547072V637.732864c0-34.758656 28.397568-63.036416 63.304704-63.036416h461.123584M618.622976 137.216c42.195968 0 81.85856 16.349184 111.67744 46.034944 29.771776 29.635584 46.16704 69.025792 46.16704 110.913536 0 41.88672-16.395264 81.276928-46.16704 110.913536-29.81888 29.68576-69.480448 46.034944-111.67744 46.034944-42.195968 0-81.85856-16.349184-111.67744-46.034944-29.770752-29.636608-46.16704-69.026816-46.16704-110.913536 0-41.887744 16.396288-81.277952 46.166016-110.913536C536.764416 153.56416 576.428032 137.216 618.624 137.216M231.478272 241.729536c-57.940992 0-105.079808 46.885888-105.079808 104.51456 0 57.63072 47.138816 104.51456 105.080832 104.51456 57.940992 0 105.079808-46.884864 105.079808-104.51456 0-57.628672-47.138816-104.51456-105.079808-104.51456m0 249.98912c-80.52736 0-146.040832-65.25952-146.040832-145.47456 0-80.21504 65.512448-145.47456 146.040832-145.47456 80.525312 0 146.039808 65.25952 146.039808 145.47456 0 80.21504-65.513472 145.47456-146.039808 145.47456m569.05728 400.2304v-40.96c31.366144 0 56.142848 0 71.078912-13.185024 17.446912-15.40096 25.929728-52.30592 25.929728-112.822272 0-60.514304-8.482816-97.420288-25.929728-112.822272-14.937088-13.184-39.712768-13.184-71.078912-13.184v-40.96c36.839424 0 71.634944 0 98.184192 23.436288 27.512832 24.28928 39.783424 68.553728 39.783424 143.529984 0 74.97728-12.270592 119.241728-39.783424 143.529984-26.550272 23.437312-61.345792 23.437312-98.184192 23.437312" fill="#9b05e1"></path></g></svg>